HIERARCHY
ROOT Hips
{
  OFFSET -748.717 92.9633 -240.224
  CHANNELS 6 Xposition Yposition Zposition Zrotation Xrotation Yrotation
  JOINT RightUpLeg
  {
    OFFSET -9.36171 -1.53666 0.00311124
    CHANNELS 3 Zrotation Xrotation Yrotation
    JOINT RightLeg
    {
      OFFSET -0.0561546 -41.884 0.13874
      CHANNELS 3 Zrotation Xrotation Yrotation
      JOINT RightFoot
      {
        OFFSET 0.429071 -42.156 -1.14421
        CHANNELS 3 Zrotation Xrotation Yrotation
        End Site
        {
          OFFSET 0 -7.69 17.5
        }
      }
    }
  }
  JOINT LeftUpLeg
  {
    OFFSET 9.2553 -1.57362 0.0631759
    CHANNELS 3 Zrotation Xrotation Yrotation
    JOINT LeftLeg
    {
      OFFSET 0.00470188 -41.899 0.0509182
      CHANNELS 3 Zrotation Xrotation Yrotation
      JOINT LeftFoot
      {
        OFFSET 0.131507 -40.9798 0.125529
        CHANNELS 3 Zrotation Xrotation Yrotation
        End Site
        {
          OFFSET 0 -7.69 17.5
        }
      }
    }
  }
  JOINT Spine
  {
    OFFSET 0.066238 14.3226 -0.0615186
    CHANNELS 3 Zrotation Xrotation Yrotation
    JOINT Spine1
    {
      OFFSET 0.0451734 9.72673 -0.0426275
      CHANNELS 3 Zrotation Xrotation Yrotation
      JOINT Spine2
      {
        OFFSET 0.0378119 10.1277 0.0623278
        CHANNELS 3 Zrotation Xrotation Yrotation
        JOINT Spine3
        {
          OFFSET 0.0216295 9.70879 0.00311684
          CHANNELS 3 Zrotation Xrotation Yrotation
          JOINT Neck
          {
            OFFSET 0.309992 10.371 0.136678
            CHANNELS 3 Zrotation Xrotation Yrotation
            JOINT Head
            {
              OFFSET 0.295744 9.40753 0.148359
              CHANNELS 3 Zrotation Xrotation Yrotation
              End Site
              {
                OFFSET 0 15.95 0
              }
            }
          }
          JOINT RightShoulder
          {
            OFFSET -3.21272 6.91214 0.00707427
            CHANNELS 3 Zrotation Xrotation Yrotation
            JOINT RightArm
            {
              OFFSET -12.8255 -0.0431601 -0.0288219
              CHANNELS 3 Zrotation Xrotation Yrotation
              JOINT RightForeArm
              {
                OFFSET -26.4637 -0.148087 0.097437
                CHANNELS 3 Zrotation Xrotation Yrotation
                JOINT RightHand
                {
                  OFFSET -25.9369 -0.0395697 0.129231
                  CHANNELS 3 Zrotation Xrotation Yrotation
                  JOINT RightHandThumb1
                  {
                    OFFSET -2.48905 0.190105 3.12053
                    CHANNELS 3 Zrotation Xrotation Yrotation
                    JOINT RightHandThumb2
                    {
                      OFFSET -3.68274 0 0
                      CHANNELS 3 Zrotation Xrotation Yrotation
                      JOINT RightHandThumb3
                      {
                        OFFSET -2.55832 0 0
                        CHANNELS 3 Zrotation Xrotation Yrotation
                        End Site
                        {
                          OFFSET -2.194 0 0
                        }
                      }
                    }
                  }
                  JOINT RightInHandIndex
                  {
                    OFFSET -3.22368 0.508421 1.97842
                    CHANNELS 3 Zrotation Xrotation Yrotation
                    JOINT RightHandIndex1
                    {
                      OFFSET -5.21684 -0.091368 0.999158
                      CHANNELS 3 Zrotation Xrotation Yrotation
                      JOINT RightHandIndex2
                      {
                        OFFSET -3.61937 0 0
                        CHANNELS 3 Zrotation Xrotation Yrotation
                        JOINT RightHandIndex3
                        {
                          OFFSET -2.0521 0 0
                          CHANNELS 3 Zrotation Xrotation Yrotation
                          End Site
                          {
                            OFFSET -1.805 0 0
                          }
                        }
                      }
                    }
                  }
                  JOINT RightInHandMiddle
                  {
                    OFFSET -3.38211 0.517263 0.756737
                    CHANNELS 3 Zrotation Xrotation Yrotation
                    JOINT RightHandMiddle1
                    {
                      OFFSET -5.17411 -0.084 0.313895
                      CHANNELS 3 Zrotation Xrotation Yrotation
                      JOINT RightHandMiddle2
                      {
                        OFFSET -3.94947 0 0
                        CHANNELS 3 Zrotation Xrotation Yrotation
                        JOINT RightHandMiddle3
                        {
                          OFFSET -2.47579 0 0
                          CHANNELS 3 Zrotation Xrotation Yrotation
                          End Site
                          {
                            OFFSET -1.975 0 0
                          }
                        }
                      }
                    }
                  }
                  JOINT RightInHandRing
                  {
                    OFFSET -3.36516 0.537895 -0.128947
                    CHANNELS 3 Zrotation Xrotation Yrotation
                    JOINT RightHandRing1
                    {
                      OFFSET -4.63474 -0.022105 -0.478947
                      CHANNELS 3 Zrotation Xrotation Yrotation
                      JOINT RightHandRing2
                      {
                        OFFSET -3.44238 0 0
                        CHANNELS 3 Zrotation Xrotation Yrotation
                        JOINT RightHandRing3
                        {
                          OFFSET -2.3881 0 0
                          CHANNELS 3 Zrotation Xrotation Yrotation
                          End Site
                          {
                            OFFSET -1.857 0 0
                          }
                        }
                      }
                    }
                  }
                  JOINT RightInHandPinky
                  {
                    OFFSET -3.16105 0.469368 -1.20179
                    CHANNELS 3 Zrotation Xrotation Yrotation
                    JOINT RightHandPinky1
                    {
                      OFFSET -4.14105 -0.022105 -1.09053
                      CHANNELS 3 Zrotation Xrotation Yrotation
                      JOINT RightHandPinky2
                      {
                        OFFSET -2.75653 0 0
                        CHANNELS 3 Zrotation Xrotation Yrotation
                        JOINT RightHandPinky3
                        {
                          OFFSET -1.74189 0 0
                          CHANNELS 3 Zrotation Xrotation Yrotation
                          End Site
                          {
                            OFFSET -1.645 0 0
                          }
                        }
                      }
                    }
                  }
                }
              }
            }
          }
          JOINT LeftShoulder
          {
            OFFSET 3.19832 6.90534 -0.0247256
            CHANNELS 3 Zrotation Xrotation Yrotation
            JOINT LeftArm
            {
              OFFSET 12.7317 -0.0547177 -0.0299584
              CHANNELS 3 Zrotation Xrotation Yrotation
              JOINT LeftForeArm
              {
                OFFSET 26.4979 -0.0533964 0.00496608
                CHANNELS 3 Zrotation Xrotation Yrotation
                JOINT LeftHand
                {
                  OFFSET 25.8938 -0.037803 0.0431178
                  CHANNELS 3 Zrotation Xrotation Yrotation
                  JOINT LeftHandThumb1
                  {
                    OFFSET 2.48905 0.190105 3.12053
                    CHANNELS 3 Zrotation Xrotation Yrotation
                    JOINT LeftHandThumb2
                    {
                      OFFSET 3.68274 0 0
                      CHANNELS 3 Zrotation Xrotation Yrotation
                      JOINT LeftHandThumb3
                      {
                        OFFSET 2.55832 0 0
                        CHANNELS 3 Zrotation Xrotation Yrotation
                        End Site
                        {
                          OFFSET 2.194 0 0
                        }
                      }
                    }
                  }
                  JOINT LeftInHandIndex
                  {
                    OFFSET 3.22368 0.508421 1.97842
                    CHANNELS 3 Zrotation Xrotation Yrotation
                    JOINT LeftHandIndex1
                    {
                      OFFSET 5.21684 -0.091368 0.999158
                      CHANNELS 3 Zrotation Xrotation Yrotation
                      JOINT LeftHandIndex2
                      {
                        OFFSET 3.61937 0 0
                        CHANNELS 3 Zrotation Xrotation Yrotation
                        JOINT LeftHandIndex3
                        {
                          OFFSET 2.0521 0 0
                          CHANNELS 3 Zrotation Xrotation Yrotation
                          End Site
                          {
                            OFFSET 1.805 0 0
                          }
                        }
                      }
                    }
                  }
                  JOINT LeftInHandMiddle
                  {
                    OFFSET 3.38211 0.517263 0.756737
                    CHANNELS 3 Zrotation Xrotation Yrotation
                    JOINT LeftHandMiddle1
                    {
                      OFFSET 5.17411 -0.084 0.313895
                      CHANNELS 3 Zrotation Xrotation Yrotation
                      JOINT LeftHandMiddle2
                      {
                        OFFSET 3.94947 0 0
                        CHANNELS 3 Zrotation Xrotation Yrotation
                        JOINT LeftHandMiddle3
                        {
                          OFFSET 2.47579 0 0
                          CHANNELS 3 Zrotation Xrotation Yrotation
                          End Site
                          {
                            OFFSET 1.975 0 0
                          }
                        }
                      }
                    }
                  }
                  JOINT LeftInHandRing
                  {
                    OFFSET 3.36516 0.537895 -0.128947
                    CHANNELS 3 Zrotation Xrotation Yrotation
                    JOINT LeftHandRing1
                    {
                      OFFSET 4.63474 -0.022105 -0.478947
                      CHANNELS 3 Zrotation Xrotation Yrotation
                      JOINT LeftHandRing2
                      {
                        OFFSET 3.44238 0 0
                        CHANNELS 3 Zrotation Xrotation Yrotation
                        JOINT LeftHandRing3
                        {
                          OFFSET 2.3881 0 0
                          CHANNELS 3 Zrotation Xrotation Yrotation
                          End Site
                          {
                            OFFSET 1.857 0 0
                          }
                        }
                      }
                    }
                  }
                  JOINT LeftInHandPinky
                  {
                    OFFSET 3.16105 0.469368 -1.20179
                    CHANNELS 3 Zrotation Xrotation Yrotation
                    JOINT LeftHandPinky1
                    {
                      OFFSET 4.14105 -0.022105 -1.09053
                      CHANNELS 3 Zrotation Xrotation Yrotation
                      JOINT LeftHandPinky2
                      {
                        OFFSET 2.75653 0 0
                        CHANNELS 3 Zrotation Xrotation Yrotation
                        JOINT LeftHandPinky3
                        {
                          OFFSET 1.74189 0 0
                          CHANNELS 3 Zrotation Xrotation Yrotation
                          End Site
                          {
                            OFFSET 1.645 0 0
                          }
                        }
                      }
                    }
                  }
                }
              }
            }
          }
        }
      }
    }
  }
}
MOTION
Frames:	4
Frame Time:	0.00833333
-703.649 84.2217 -206.553 2.20524 -15.5608 128.376 23.1159 -40.3427 16.609 -6.77306 12.9154 28.5971 18.1232 21.6936 40.1279 36.7524 -13.91 35.8474 2.80416 62.5929 -4.67468 -18.1074 -3.28911 34.7373 -5.07004 4.75911 -26.8474 -1.47199 0.282352 -6.92927 -2.43212 0.0397733 -10.6837 -0.839342 -0.588911 2.84294 -2.86185 -4.96355 45.1804 -14.249 9.23498 28.4575 0.830633 -9.70635 -2.30851 38.6297 -59.965 13.7333 24.2234 -24.4645 119.32 -6.12615 -9.01122 0.60325 28.184 10.7294 19.1592 -1.89522e-15 -1.59028e-15 -10 7.02006e-15 3.18055e-15 -10 6.36111e-15 3.18055e-15 -1.59028e-15 19.9818 0.871897 2.3964 24 -3.18055e-15 -0 20 3.97569e-15 -0 6.36111e-15 3.18055e-15 -1.59028e-15 20 0 -9.54166e-15 24 6.36111e-15 6.36111e-15 20 1.59028e-15 1.90833e-14 6.36111e-15 3.18055e-15 -1.59028e-15 19.9748 -1.02565 -2.81938 24 6.36111e-15 -0 20 7.95139e-16 3.18055e-15 6.36111e-15 3.18055e-15 -1.59028e-15 19.7815 -3.00948 -8.30515 24 -6.36111e-15 3.18055e-15 20 -2.38542e-15 -6.36111e-15 1.43561 -6.88344 -13.8603 18.5593 7.76818 -155.315 29.2049 -15.2924 -23.9215 -26.4295 -34.8957 -55.5533 -28.184 10.7294 -19.1592 -2.73358e-15 4.77083e-15 10 -4.65349e-16 -7.95139e-16 10 2.24875e-15 -4.96962e-16 1.59028e-15 -19.9818 0.871897 -2.3964 -24 -7.95139e-15 1.27222e-14 -20 -3.18055e-15 5.56597e-15 2.24875e-15 -4.96962e-16 1.59028e-15 -20 -2.38542e-15 1.59028e-15 -24 -3.18055e-15 1.43125e-14 -20 4.77083e-15 -2.38542e-15 2.24875e-15 -4.96962e-16 1.59028e-15 -19.9748 -1.02565 2.81938 -24 3.18055e-15 -0 -20 -3.18055e-15 -3.97569e-15 2.24875e-15 -4.96962e-16 1.59028e-15 -19.7815 -3.00948 8.30515 -24 -1.59028e-15 -3.18055e-15 -20 -6.36111e-15 1.59028e-15 
-703.783 84.2519 -206.382 2.3192 -15.711 128.802 23.099 -40.5562 16.3448 -6.7202 12.8592 28.6586 17.903 21.7619 39.8255 36.963 -14.3193 35.8384 3.20171 62.612 -5.16467 -18.1436 -3.15665 34.5219 -5.03213 4.80221 -26.9001 -1.46436 0.288958 -6.94257 -2.42084 0.0486796 -10.7008 -0.838502 -0.588454 2.84358 -2.861 -4.92926 45.2094 -14.2068 9.20878 28.4743 0.816361 -9.72352 -2.25234 39.2313 -59.4362 14.0206 23.8097 -24.637 119.282 -6.0924 -9.03506 0.608471 28.184 10.7294 19.1592 2.17563e-15 3.18055e-15 -10 2.10798e-15 -6.36111e-15 -10 3.18055e-15 0 1.59028e-15 19.9818 0.871897 2.3964 24 -7.95139e-15 1.27222e-14 20 -6.16232e-15 -3.18055e-15 3.18055e-15 0 1.59028e-15 20 9.54166e-15 -0 24 -7.95139e-15 -6.36111e-15 20 -3.18055e-15 3.18055e-15 3.18055e-15 0 1.59028e-15 19.9748 -1.02565 -2.81938 24 1.27222e-14 -3.18055e-15 20 3.18055e-15 9.54166e-15 3.18055e-15 0 1.59028e-15 19.7815 -3.00948 -8.30515 24 6.36111e-15 3.18055e-15 20 1.59028e-15 6.36111e-15 1.45847 -6.80481 -13.7164 18.6123 7.85171 -155.522 29.1748 -15.2198 -23.4259 -26.9785 -34.4526 -56.5832 -28.184 10.7294 -19.1592 -5.13218e-16 4.77083e-15 10 8.52141e-16 3.18055e-15 10 2.62147e-15 -1.54058e-15 1.59028e-15 -19.9818 0.871897 -2.3964 -24 -1.59028e-15 6.36111e-15 -20 -3.18055e-15 5.56597e-15 2.62147e-15 -1.54058e-15 1.59028e-15 -20 -1.59028e-15 -1.59028e-15 -24 0 3.18055e-15 -20 -1.59028e-15 4.77083e-15 2.62147e-15 -1.54058e-15 1.59028e-15 -19.9748 -1.02565 2.81938 -24 1.59028e-15 -0 -20 3.18055e-15 3.97569e-15 2.62147e-15 -1.54058e-15 1.59028e-15 -19.7815 -3.00948 8.30515 -24 -4.77083e-15 9.54166e-15 -20 0 -0 
-703.925 84.2951 -206.201 2.4272 -15.8964 129.289 23.0351 -40.7871 16.0966 -6.65515 12.7733 28.7116 17.7282 21.8053 39.4441 37.1743 -14.8042 35.9039 3.75984 62.5946 -5.84035 -18.0639 -2.94311 34.5482 -4.97971 4.8389 -26.9601 -1.45299 0.295347 -6.95732 -2.40336 0.0579424 -10.72 -0.835585 -0.58786 2.84412 -2.85553 -4.8765 45.2383 -14.1402 9.18062 28.4959 0.802477 -9.73241 -2.18038 39.9337 -58.8392 14.3474 23.3665 -24.8505 119.257 -6.12805 -8.83047 0.896502 28.184 10.7294 19.1592 -4.84443e-15 0 -10 1.61481e-15 0 -10 -1.59028e-15 6.36111e-15 -0 19.9818 0.871897 2.3964 24 -1.59028e-15 3.18055e-15 20 -1.39149e-15 3.18055e-15 -1.59028e-15 6.36111e-15 -0 20 -6.36111e-15 -1.27222e-14 24 1.59028e-15 6.36111e-15 20 3.97569e-15 -6.36111e-15 -1.59028e-15 6.36111e-15 -0 19.9748 -1.02565 -2.81938 24 7.95139e-15 -6.36111e-15 20 0 3.18055e-15 -1.59028e-15 6.36111e-15 -0 19.7815 -3.00948 -8.30515 24 0 6.36111e-15 20 -1.59028e-15 9.54166e-15 1.52218 -6.71017 -13.8802 18.6343 7.88251 -155.608 29.1643 -15.1899 -23.213 -26.9318 -35.1277 -55.7721 -28.184 10.7294 -19.1592 -4.74323e-15 -7.15625e-15 10 2.61315e-15 -7.95139e-15 10 2.00027e-15 -1.14301e-15 -1.59028e-15 -19.9818 0.871897 -2.3964 -24 1.59028e-15 3.18055e-15 -20 4.77083e-15 -3.18055e-15 2.00027e-15 -1.14301e-15 -1.59028e-15 -20 1.59028e-15 -6.36111e-15 -24 -3.18055e-15 4.77083e-15 -20 1.59028e-15 -0 2.00027e-15 -1.14301e-15 -1.59028e-15 -19.9748 -1.02565 2.81938 -24 -1.59028e-15 -3.18055e-15 -20 -3.18055e-15 -0 2.00027e-15 -1.14301e-15 -1.59028e-15 -19.7815 -3.00948 8.30515 -24 1.59028e-15 -0 -20 -6.36111e-15 -0 
-704.069 84.341 -206.011 2.5261 -16.1019 129.825 22.9103 -41.0516 15.8704 -6.57318 12.6893 28.7472 17.6001 21.8177 39.005 37.3864 -15.3452 36.0136 4.35575 62.5565 -6.54539 -17.9046 -2.73226 34.6225 -4.92466 4.87406 -27.018 -1.44088 0.301501 -6.97139 -2.38475 0.0669808 -10.7382 -0.829535 -0.585803 2.84459 -2.84744 -4.81023 45.2517 -14.0516 9.14466 28.5116 0.772342 -9.73223 -2.10391 40.773 -58.1783 14.708 22.8568 -25.0797 119.246 -6.30365 -8.29529 1.56146 28.184 10.7294 19.1592 -5.40525e-15 -3.18055e-15 -10 -9.68886e-15 0 -10 -4.77083e-15 9.54166e-15 -3.18055e-15 19.9818 0.871897 2.3964 24 -6.36111e-15 3.18055e-15 20 -1.98785e-15 -1.90833e-14 -4.77083e-15 9.54166e-15 -3.18055e-15 20 6.36111e-15 9.54166e-15 24 -4.77083e-15 -6.36111e-15 20 3.97569e-15 -1.59028e-14 -4.77083e-15 9.54166e-15 -3.18055e-15 19.9748 -1.02565 -2.81938 24 -7.95139e-15 -3.18055e-15 20 -1.59028e-15 -0 -4.77083e-15 9.54166e-15 -3.18055e-15 19.7815 -3.00948 -8.30515 24 0 -9.54166e-15 20 0 3.18055e-15 1.62883 -6.60473 -14.3425 18.6587 7.78881 -155.709 29.184 -15.2203 -23.2774 -26.3199 -36.1912 -53.997 -28.184 10.7294 -19.1592 -2.28228e-15 6.36111e-15 10 -2.78118e-15 3.18055e-15 10 3.72721e-15 -1.01877e-15 -0 -19.9818 0.871897 -2.3964 -24 1.59028e-15 3.18055e-15 -20 -4.77083e-15 3.18055e-15 3.72721e-15 -1.01877e-15 -0 -20 -5.56597e-15 7.95139e-15 -24 -1.59028e-15 1.27222e-14 -20 3.18055e-15 -7.95139e-16 3.72721e-15 -1.01877e-15 -0 -19.9748 -1.02565 2.81938 -24 3.18055e-15 3.18055e-15 -20 -3.18055e-15 1.59028e-15 3.72721e-15 -1.01877e-15 -0 -19.7815 -3.00948 8.30515 -24 0 6.36111e-15 -20 0 4.77083e-15 
